<mxfile host="app.diagrams.net" modified="2023-11-15T16:15:54.215Z" agent="Mozilla/5.0 (X11; Linux x86_64) AppleWebKit/537.36 (KHTML, like Gecko) Chrome/119.0.0.0 Safari/537.36" etag="m_u4DcRD-oyCrwXgrlt_" version="22.1.1" type="device">
  <diagram name="PÃ¡gina-1" id="aU-SQqhUDh7mTu2FFDyx">
    <mxGraphModel dx="2113" dy="3214" grid="1" gridSize="10" guides="1" tooltips="1" connect="1" arrows="1" fold="1" page="1" pageScale="1" pageWidth="827" pageHeight="1169" math="0" shadow="0">
      <root>
        <mxCell id="0" />
        <mxCell id="1" parent="0" />
        <mxCell id="G5W-g5Hc8PgUAYtpd-jO-1" value="src" style="shape=folder;tabWidth=80;tabHeight=20;tabPosition=left;strokeWidth=2;html=1;whiteSpace=wrap;align=center;" parent="1" vertex="1">
          <mxGeometry x="333" y="539" width="160" height="90" as="geometry" />
        </mxCell>
        <mxCell id="G5W-g5Hc8PgUAYtpd-jO-2" value="app" style="shape=folder;tabWidth=80;tabHeight=20;tabPosition=left;strokeWidth=2;html=1;whiteSpace=wrap;align=center;" parent="1" vertex="1">
          <mxGeometry x="70" y="539" width="160" height="90" as="geometry" />
        </mxCell>
        <mxCell id="G5W-g5Hc8PgUAYtpd-jO-3" value="" style="edgeStyle=none;html=1;endSize=12;endArrow=block;endFill=0;dashed=1;rounded=0;exitX=0;exitY=0;exitDx=160;exitDy=55;exitPerimeter=0;entryX=0;entryY=0;entryDx=0;entryDy=55;entryPerimeter=0;" parent="1" source="G5W-g5Hc8PgUAYtpd-jO-2" target="G5W-g5Hc8PgUAYtpd-jO-1" edge="1">
          <mxGeometry width="160" relative="1" as="geometry">
            <mxPoint x="230" y="590" as="sourcePoint" />
            <mxPoint x="390" y="590" as="targetPoint" />
          </mxGeometry>
        </mxCell>
        <mxCell id="G5W-g5Hc8PgUAYtpd-jO-4" value="assets" style="shape=folder;tabWidth=80;tabHeight=20;tabPosition=left;strokeWidth=2;html=1;whiteSpace=wrap;align=center;" parent="1" vertex="1">
          <mxGeometry x="300" y="330" width="160" height="90" as="geometry" />
        </mxCell>
        <mxCell id="G5W-g5Hc8PgUAYtpd-jO-6" value="" style="edgeStyle=orthogonalEdgeStyle;html=1;endSize=12;endArrow=block;endFill=0;dashed=1;rounded=0;exitX=0.5;exitY=1;exitDx=0;exitDy=0;exitPerimeter=0;entryX=0;entryY=0;entryDx=80;entryDy=0;entryPerimeter=0;" parent="1" source="G5W-g5Hc8PgUAYtpd-jO-4" target="G5W-g5Hc8PgUAYtpd-jO-2" edge="1">
          <mxGeometry width="160" relative="1" as="geometry">
            <mxPoint x="390" y="670" as="sourcePoint" />
            <mxPoint x="380.0000000000002" y="529" as="targetPoint" />
          </mxGeometry>
        </mxCell>
        <mxCell id="G5W-g5Hc8PgUAYtpd-jO-7" value="services" style="shape=folder;tabWidth=80;tabHeight=20;tabPosition=left;strokeWidth=2;html=1;whiteSpace=wrap;align=center;" parent="1" vertex="1">
          <mxGeometry x="-160" y="730" width="160" height="90" as="geometry" />
        </mxCell>
        <mxCell id="G5W-g5Hc8PgUAYtpd-jO-8" value="entities" style="shape=folder;tabWidth=80;tabHeight=20;tabPosition=left;strokeWidth=2;html=1;whiteSpace=wrap;align=center;" parent="1" vertex="1">
          <mxGeometry x="70" y="730" width="160" height="90" as="geometry" />
        </mxCell>
        <mxCell id="G5W-g5Hc8PgUAYtpd-jO-11" value="menus" style="shape=folder;tabWidth=80;tabHeight=20;tabPosition=left;strokeWidth=2;html=1;whiteSpace=wrap;align=center;" parent="1" vertex="1">
          <mxGeometry x="70" y="332.67" width="160" height="90" as="geometry" />
        </mxCell>
        <mxCell id="G5W-g5Hc8PgUAYtpd-jO-12" value="navbars" style="shape=folder;tabWidth=80;tabHeight=20;tabPosition=left;strokeWidth=2;html=1;whiteSpace=wrap;align=center;" parent="1" vertex="1">
          <mxGeometry x="-180" y="332.67" width="160" height="90" as="geometry" />
        </mxCell>
        <mxCell id="G5W-g5Hc8PgUAYtpd-jO-13" value="" style="shape=stencil(fZbdcgIhDIWfZm8zQAg/17Z9j85U606tdqz9e/tmZ0c0uJ47xP0I5JwEBl59bp8/1kNwn6fj4W39M76ctgM/DCGM++36OJ50NPDjwKvN4bh+PR6+9i/z74/n6ctp9H74nlb4nbmSKZeJCu5vngmZ6jzzNAO7cX8FVKEsBuBKrgKg9oAE8gkCbLeUhEoEQKSUDZDLeWYRKIl8MEDRmHwfyBrBG6Amyu4+kDxxMoB3jhwgYu7TVAsVkFcWCs4CTBEoF4RctKeOxHIf8IXYpikHikAIf+MNUW94AGSSaoAoFIE3AlOyeWU+p2E5S9yfQZcQILVuQOwZdJNoS9Ls3wA5u2XZTIHECqeJ9kDpSaauRiNVcAY1QhdBzeLBli5WazpkSsBLV25uRaqWRyFawTQzRRIQYirJzq5atkBqLfouwqUxLBepthWb10vrWZY6UOAeyKCCtDV625mm9gmUC4Wc3VLJMMIE1BsA2FW9JraVlQB7n3c9oMKhCLEvIM1zBPZ25/umNQ1tVEC2G+fFCC8g398O2hNQuQlVu752DBfA+q0ptnqO5JFmeuIuo9DY7KjY71UxdJV4EntifPWorW++R/dC4t7V3DlIB5cHx2bc7eb3yvX//QNFp+bHDT/+Aw==);lineShape=1;" parent="1" vertex="1">
          <mxGeometry x="180.3899673687299" y="375.7294270487662" width="3.8937831434293457" height="3.88769684696437" as="geometry" />
        </mxCell>
        <mxCell id="G5W-g5Hc8PgUAYtpd-jO-15" value="" style="edgeStyle=orthogonalEdgeStyle;html=1;endSize=12;endArrow=block;endFill=0;dashed=1;rounded=0;exitX=0;exitY=0;exitDx=80;exitDy=0;exitPerimeter=0;" parent="1" source="G5W-g5Hc8PgUAYtpd-jO-8" edge="1">
          <mxGeometry width="160" relative="1" as="geometry">
            <mxPoint x="200" y="640" as="sourcePoint" />
            <mxPoint x="150" y="630" as="targetPoint" />
          </mxGeometry>
        </mxCell>
        <mxCell id="G5W-g5Hc8PgUAYtpd-jO-16" value="" style="edgeStyle=orthogonalEdgeStyle;html=1;endSize=12;endArrow=block;endFill=0;dashed=1;rounded=0;exitX=0;exitY=0;exitDx=80;exitDy=20;exitPerimeter=0;" parent="1" source="ayWMtjVmsm0DvPxxlaK2-1" edge="1">
          <mxGeometry width="160" relative="1" as="geometry">
            <mxPoint x="360" y="730" as="sourcePoint" />
            <mxPoint x="150" y="630" as="targetPoint" />
            <Array as="points">
              <mxPoint x="370" y="680" />
              <mxPoint x="150" y="680" />
            </Array>
          </mxGeometry>
        </mxCell>
        <mxCell id="G5W-g5Hc8PgUAYtpd-jO-17" value="" style="edgeStyle=orthogonalEdgeStyle;html=1;endSize=12;endArrow=block;endFill=0;dashed=1;rounded=0;exitX=0;exitY=0;exitDx=80;exitDy=0;exitPerimeter=0;entryX=0.5;entryY=1;entryDx=0;entryDy=0;entryPerimeter=0;" parent="1" source="G5W-g5Hc8PgUAYtpd-jO-7" target="G5W-g5Hc8PgUAYtpd-jO-2" edge="1">
          <mxGeometry width="160" relative="1" as="geometry">
            <mxPoint x="60" y="741" as="sourcePoint" />
            <mxPoint x="-70" y="640" as="targetPoint" />
          </mxGeometry>
        </mxCell>
        <mxCell id="G5W-g5Hc8PgUAYtpd-jO-19" value="" style="edgeStyle=orthogonalEdgeStyle;html=1;endSize=12;endArrow=block;endFill=0;dashed=1;rounded=0;exitX=0.5;exitY=1;exitDx=0;exitDy=0;exitPerimeter=0;entryX=0;entryY=0;entryDx=80;entryDy=0;entryPerimeter=0;" parent="1" source="G5W-g5Hc8PgUAYtpd-jO-11" target="G5W-g5Hc8PgUAYtpd-jO-2" edge="1">
          <mxGeometry width="160" relative="1" as="geometry">
            <mxPoint x="240" y="551" as="sourcePoint" />
            <mxPoint x="150" y="530" as="targetPoint" />
          </mxGeometry>
        </mxCell>
        <mxCell id="G5W-g5Hc8PgUAYtpd-jO-21" value="" style="edgeStyle=orthogonalEdgeStyle;html=1;endSize=12;endArrow=block;endFill=0;dashed=1;rounded=0;exitX=0.5;exitY=1;exitDx=0;exitDy=0;exitPerimeter=0;entryX=0;entryY=0;entryDx=80;entryDy=0;entryPerimeter=0;" parent="1" source="G5W-g5Hc8PgUAYtpd-jO-12" target="G5W-g5Hc8PgUAYtpd-jO-2" edge="1">
          <mxGeometry width="160" relative="1" as="geometry">
            <mxPoint x="-40" y="605" as="sourcePoint" />
            <mxPoint x="380" y="530" as="targetPoint" />
          </mxGeometry>
        </mxCell>
        <mxCell id="G5W-g5Hc8PgUAYtpd-jO-24" value="tiene Acceso" style="edgeLabel;html=1;align=center;verticalAlign=middle;resizable=0;points=[];" parent="G5W-g5Hc8PgUAYtpd-jO-21" vertex="1" connectable="0">
          <mxGeometry x="0.0792" y="1" relative="1" as="geometry">
            <mxPoint as="offset" />
          </mxGeometry>
        </mxCell>
        <mxCell id="G5W-g5Hc8PgUAYtpd-jO-25" value="administrador" style="shape=folder;tabWidth=80;tabHeight=20;tabPosition=left;strokeWidth=2;html=1;whiteSpace=wrap;align=center;" parent="1" vertex="1">
          <mxGeometry x="-200" y="40" width="160" height="90" as="geometry" />
        </mxCell>
        <mxCell id="G5W-g5Hc8PgUAYtpd-jO-26" value="navbar-incio" style="shape=folder;tabWidth=80;tabHeight=20;tabPosition=left;strokeWidth=2;html=1;whiteSpace=wrap;align=center;" parent="1" vertex="1">
          <mxGeometry x="-520" y="190.00000000000003" width="160" height="90" as="geometry" />
        </mxCell>
        <mxCell id="G5W-g5Hc8PgUAYtpd-jO-27" value="empleador" style="shape=folder;tabWidth=80;tabHeight=20;tabPosition=left;strokeWidth=2;html=1;whiteSpace=wrap;align=center;" parent="1" vertex="1">
          <mxGeometry x="110" y="40" width="160" height="90" as="geometry" />
        </mxCell>
        <mxCell id="G5W-g5Hc8PgUAYtpd-jO-28" value="general" style="shape=folder;tabWidth=80;tabHeight=20;tabPosition=left;strokeWidth=2;html=1;whiteSpace=wrap;align=center;" parent="1" vertex="1">
          <mxGeometry x="380" y="40" width="160" height="90" as="geometry" />
        </mxCell>
        <mxCell id="G5W-g5Hc8PgUAYtpd-jO-29" value="navbar-admin" style="shape=folder;tabWidth=80;tabHeight=20;tabPosition=left;strokeWidth=2;html=1;whiteSpace=wrap;align=center;" parent="1" vertex="1">
          <mxGeometry x="-520" y="330" width="160" height="90" as="geometry" />
        </mxCell>
        <mxCell id="G5W-g5Hc8PgUAYtpd-jO-31" value="navbar-empleador" style="shape=folder;tabWidth=80;tabHeight=20;tabPosition=left;strokeWidth=2;html=1;whiteSpace=wrap;align=center;" parent="1" vertex="1">
          <mxGeometry x="-520" y="560" width="160" height="90" as="geometry" />
        </mxCell>
        <mxCell id="G5W-g5Hc8PgUAYtpd-jO-32" value="navbar-solicitante" style="shape=folder;tabWidth=80;tabHeight=20;tabPosition=left;strokeWidth=2;html=1;whiteSpace=wrap;align=center;" parent="1" vertex="1">
          <mxGeometry x="-520" y="440" width="160" height="90" as="geometry" />
        </mxCell>
        <mxCell id="G5W-g5Hc8PgUAYtpd-jO-33" value="solicitante" style="shape=folder;tabWidth=80;tabHeight=20;tabPosition=left;strokeWidth=2;html=1;whiteSpace=wrap;align=center;" parent="1" vertex="1">
          <mxGeometry x="667" y="40" width="160" height="90" as="geometry" />
        </mxCell>
        <mxCell id="G5W-g5Hc8PgUAYtpd-jO-35" value="" style="edgeStyle=none;html=1;endSize=12;endArrow=block;endFill=0;dashed=1;rounded=0;exitX=0;exitY=0;exitDx=160;exitDy=55;exitPerimeter=0;entryX=0;entryY=0;entryDx=0;entryDy=55;entryPerimeter=0;" parent="1" source="G5W-g5Hc8PgUAYtpd-jO-29" target="G5W-g5Hc8PgUAYtpd-jO-12" edge="1">
          <mxGeometry width="160" relative="1" as="geometry">
            <mxPoint x="-360" y="390" as="sourcePoint" />
            <mxPoint x="-200" y="390" as="targetPoint" />
          </mxGeometry>
        </mxCell>
        <mxCell id="G5W-g5Hc8PgUAYtpd-jO-36" value="" style="edgeStyle=orthogonalEdgeStyle;html=1;endSize=12;endArrow=block;endFill=0;dashed=1;rounded=0;entryX=0;entryY=0;entryDx=0;entryDy=55;entryPerimeter=0;exitX=0;exitY=0;exitDx=160;exitDy=55;exitPerimeter=0;" parent="1" source="G5W-g5Hc8PgUAYtpd-jO-32" target="G5W-g5Hc8PgUAYtpd-jO-12" edge="1">
          <mxGeometry width="160" relative="1" as="geometry">
            <mxPoint x="-350" y="395" as="sourcePoint" />
            <mxPoint x="-170" y="398" as="targetPoint" />
          </mxGeometry>
        </mxCell>
        <mxCell id="G5W-g5Hc8PgUAYtpd-jO-37" value="" style="edgeStyle=orthogonalEdgeStyle;html=1;endSize=12;endArrow=block;endFill=0;dashed=1;rounded=0;exitX=0;exitY=0;exitDx=160;exitDy=55;exitPerimeter=0;entryX=0;entryY=0;entryDx=0;entryDy=55;entryPerimeter=0;" parent="1" source="G5W-g5Hc8PgUAYtpd-jO-26" target="G5W-g5Hc8PgUAYtpd-jO-12" edge="1">
          <mxGeometry width="160" relative="1" as="geometry">
            <mxPoint x="-310" y="260" as="sourcePoint" />
            <mxPoint x="-150" y="260" as="targetPoint" />
          </mxGeometry>
        </mxCell>
        <mxCell id="G5W-g5Hc8PgUAYtpd-jO-38" value="" style="edgeStyle=orthogonalEdgeStyle;html=1;endSize=12;endArrow=block;endFill=0;dashed=1;rounded=0;exitX=0;exitY=0;exitDx=160;exitDy=55;exitPerimeter=0;entryX=0;entryY=0;entryDx=0;entryDy=55;entryPerimeter=0;" parent="1" source="G5W-g5Hc8PgUAYtpd-jO-31" target="G5W-g5Hc8PgUAYtpd-jO-12" edge="1">
          <mxGeometry width="160" relative="1" as="geometry">
            <mxPoint x="-360" y="610" as="sourcePoint" />
            <mxPoint x="-200" y="620" as="targetPoint" />
          </mxGeometry>
        </mxCell>
        <mxCell id="G5W-g5Hc8PgUAYtpd-jO-40" value="" style="edgeStyle=orthogonalEdgeStyle;html=1;endSize=12;endArrow=block;endFill=0;dashed=1;rounded=0;exitX=0.5;exitY=1;exitDx=0;exitDy=0;exitPerimeter=0;entryX=0;entryY=0;entryDx=80;entryDy=0;entryPerimeter=0;" parent="1" source="G5W-g5Hc8PgUAYtpd-jO-25" target="G5W-g5Hc8PgUAYtpd-jO-11" edge="1">
          <mxGeometry width="160" relative="1" as="geometry">
            <mxPoint x="-160" y="230" as="sourcePoint" />
            <mxPoint y="230" as="targetPoint" />
          </mxGeometry>
        </mxCell>
        <mxCell id="G5W-g5Hc8PgUAYtpd-jO-41" value="" style="edgeStyle=orthogonalEdgeStyle;html=1;endSize=12;endArrow=block;endFill=0;dashed=1;rounded=0;exitX=0.5;exitY=1;exitDx=0;exitDy=0;exitPerimeter=0;entryX=0;entryY=0;entryDx=80;entryDy=0;entryPerimeter=0;" parent="1" source="G5W-g5Hc8PgUAYtpd-jO-27" target="G5W-g5Hc8PgUAYtpd-jO-11" edge="1">
          <mxGeometry width="160" relative="1" as="geometry">
            <mxPoint x="150" y="160" as="sourcePoint" />
            <mxPoint x="310" y="160" as="targetPoint" />
          </mxGeometry>
        </mxCell>
        <mxCell id="G5W-g5Hc8PgUAYtpd-jO-43" value="" style="edgeStyle=orthogonalEdgeStyle;html=1;endSize=12;endArrow=block;endFill=0;dashed=1;rounded=0;exitX=0.5;exitY=1;exitDx=0;exitDy=0;exitPerimeter=0;entryX=0;entryY=0;entryDx=80;entryDy=0;entryPerimeter=0;" parent="1" source="G5W-g5Hc8PgUAYtpd-jO-28" target="G5W-g5Hc8PgUAYtpd-jO-11" edge="1">
          <mxGeometry width="160" relative="1" as="geometry">
            <mxPoint x="350" y="190" as="sourcePoint" />
            <mxPoint x="510" y="190" as="targetPoint" />
          </mxGeometry>
        </mxCell>
        <mxCell id="G5W-g5Hc8PgUAYtpd-jO-44" value="" style="edgeStyle=orthogonalEdgeStyle;html=1;endSize=12;endArrow=block;endFill=0;dashed=1;rounded=0;exitX=0.5;exitY=1;exitDx=0;exitDy=0;exitPerimeter=0;entryX=0;entryY=0;entryDx=80;entryDy=0;entryPerimeter=0;" parent="1" source="G5W-g5Hc8PgUAYtpd-jO-33" target="G5W-g5Hc8PgUAYtpd-jO-11" edge="1">
          <mxGeometry width="160" relative="1" as="geometry">
            <mxPoint x="500" y="180" as="sourcePoint" />
            <mxPoint x="660" y="180" as="targetPoint" />
          </mxGeometry>
        </mxCell>
        <mxCell id="G5W-g5Hc8PgUAYtpd-jO-45" value="admin-dashbord" style="shape=folder;tabWidth=80;tabHeight=20;tabPosition=left;strokeWidth=2;html=1;whiteSpace=wrap;align=center;" parent="1" vertex="1">
          <mxGeometry x="-340" y="-260" width="160" height="90" as="geometry" />
        </mxCell>
        <mxCell id="G5W-g5Hc8PgUAYtpd-jO-46" value="admin-comision" style="shape=folder;tabWidth=80;tabHeight=20;tabPosition=left;strokeWidth=2;html=1;whiteSpace=wrap;align=center;" parent="1" vertex="1">
          <mxGeometry x="-340" y="-130" width="160" height="90" as="geometry" />
        </mxCell>
        <mxCell id="G5W-g5Hc8PgUAYtpd-jO-47" value="" style="edgeStyle=orthogonalEdgeStyle;html=1;endSize=12;endArrow=block;endFill=0;dashed=1;rounded=0;exitX=0;exitY=0;exitDx=160;exitDy=55;exitPerimeter=0;entryX=0;entryY=0;entryDx=80;entryDy=0;entryPerimeter=0;" parent="1" source="G5W-g5Hc8PgUAYtpd-jO-46" target="G5W-g5Hc8PgUAYtpd-jO-25" edge="1">
          <mxGeometry width="160" relative="1" as="geometry">
            <mxPoint x="-150" y="-30" as="sourcePoint" />
            <mxPoint x="10" y="-30" as="targetPoint" />
          </mxGeometry>
        </mxCell>
        <mxCell id="G5W-g5Hc8PgUAYtpd-jO-48" value="" style="edgeStyle=orthogonalEdgeStyle;html=1;endSize=12;endArrow=block;endFill=0;dashed=1;rounded=0;exitX=0;exitY=0;exitDx=160;exitDy=55;exitPerimeter=0;entryX=0;entryY=0;entryDx=80;entryDy=0;entryPerimeter=0;" parent="1" source="G5W-g5Hc8PgUAYtpd-jO-45" target="G5W-g5Hc8PgUAYtpd-jO-25" edge="1">
          <mxGeometry width="160" relative="1" as="geometry">
            <mxPoint x="-170" y="-65" as="sourcePoint" />
            <mxPoint x="-60" y="50" as="targetPoint" />
          </mxGeometry>
        </mxCell>
        <mxCell id="G5W-g5Hc8PgUAYtpd-jO-49" value="admin-gestion" style="shape=folder;tabWidth=80;tabHeight=20;tabPosition=left;strokeWidth=2;html=1;whiteSpace=wrap;align=center;" parent="1" vertex="1">
          <mxGeometry x="-340" y="-380" width="160" height="90" as="geometry" />
        </mxCell>
        <mxCell id="G5W-g5Hc8PgUAYtpd-jO-50" value="admin-reportes" style="shape=folder;tabWidth=80;tabHeight=20;tabPosition=left;strokeWidth=2;html=1;whiteSpace=wrap;align=center;" parent="1" vertex="1">
          <mxGeometry x="-340" y="-500" width="160" height="90" as="geometry" />
        </mxCell>
        <mxCell id="G5W-g5Hc8PgUAYtpd-jO-51" value="" style="edgeStyle=orthogonalEdgeStyle;html=1;endSize=12;endArrow=block;endFill=0;dashed=1;rounded=0;exitX=0;exitY=0;exitDx=160;exitDy=55;exitPerimeter=0;entryX=0;entryY=0;entryDx=80;entryDy=0;entryPerimeter=0;" parent="1" source="G5W-g5Hc8PgUAYtpd-jO-49" target="G5W-g5Hc8PgUAYtpd-jO-25" edge="1">
          <mxGeometry width="160" relative="1" as="geometry">
            <mxPoint x="-170" y="-195" as="sourcePoint" />
            <mxPoint x="-60" y="50" as="targetPoint" />
          </mxGeometry>
        </mxCell>
        <mxCell id="G5W-g5Hc8PgUAYtpd-jO-52" value="" style="edgeStyle=orthogonalEdgeStyle;html=1;endSize=12;endArrow=block;endFill=0;dashed=1;rounded=0;exitX=0;exitY=0;exitDx=160;exitDy=55;exitPerimeter=0;entryX=0;entryY=0;entryDx=80;entryDy=0;entryPerimeter=0;" parent="1" source="G5W-g5Hc8PgUAYtpd-jO-50" target="G5W-g5Hc8PgUAYtpd-jO-25" edge="1">
          <mxGeometry width="160" relative="1" as="geometry">
            <mxPoint x="-170" y="-315" as="sourcePoint" />
            <mxPoint x="-60" y="50" as="targetPoint" />
            <Array as="points">
              <mxPoint x="-120" y="-445" />
            </Array>
          </mxGeometry>
        </mxCell>
        <mxCell id="G5W-g5Hc8PgUAYtpd-jO-53" value="completar-infromacion" style="shape=folder;tabWidth=80;tabHeight=20;tabPosition=left;strokeWidth=2;html=1;whiteSpace=wrap;align=center;" parent="1" vertex="1">
          <mxGeometry x="-40" y="-260" width="160" height="90" as="geometry" />
        </mxCell>
        <mxCell id="G5W-g5Hc8PgUAYtpd-jO-54" value="actualzar-oferta" style="shape=folder;tabWidth=80;tabHeight=20;tabPosition=left;strokeWidth=2;html=1;whiteSpace=wrap;align=center;" parent="1" vertex="1">
          <mxGeometry x="-40" y="-130" width="160" height="90" as="geometry" />
        </mxCell>
        <mxCell id="G5W-g5Hc8PgUAYtpd-jO-55" value="crear-oferta" style="shape=folder;tabWidth=80;tabHeight=20;tabPosition=left;strokeWidth=2;html=1;whiteSpace=wrap;align=center;" parent="1" vertex="1">
          <mxGeometry x="-40" y="-380" width="160" height="90" as="geometry" />
        </mxCell>
        <mxCell id="G5W-g5Hc8PgUAYtpd-jO-56" value="datos-postulante" style="shape=folder;tabWidth=80;tabHeight=20;tabPosition=left;strokeWidth=2;html=1;whiteSpace=wrap;align=center;" parent="1" vertex="1">
          <mxGeometry x="-40" y="-500" width="160" height="90" as="geometry" />
        </mxCell>
        <mxCell id="G5W-g5Hc8PgUAYtpd-jO-57" value="" style="edgeStyle=orthogonalEdgeStyle;html=1;endSize=12;endArrow=block;endFill=0;dashed=1;rounded=0;exitX=0;exitY=0;exitDx=160;exitDy=55;exitPerimeter=0;entryX=0;entryY=0;entryDx=80;entryDy=0;entryPerimeter=0;" parent="1" source="G5W-g5Hc8PgUAYtpd-jO-56" target="G5W-g5Hc8PgUAYtpd-jO-27" edge="1">
          <mxGeometry width="160" relative="1" as="geometry">
            <mxPoint x="130" y="-445" as="sourcePoint" />
            <mxPoint x="190" y="40" as="targetPoint" />
          </mxGeometry>
        </mxCell>
        <mxCell id="G5W-g5Hc8PgUAYtpd-jO-58" value="" style="edgeStyle=orthogonalEdgeStyle;html=1;endSize=12;endArrow=block;endFill=0;dashed=1;rounded=0;exitX=0;exitY=0;exitDx=160;exitDy=55;exitPerimeter=0;entryX=0;entryY=0;entryDx=80;entryDy=0;entryPerimeter=0;" parent="1" source="G5W-g5Hc8PgUAYtpd-jO-55" target="G5W-g5Hc8PgUAYtpd-jO-27" edge="1">
          <mxGeometry width="160" relative="1" as="geometry">
            <mxPoint x="130" y="-435" as="sourcePoint" />
            <mxPoint x="200" y="50" as="targetPoint" />
          </mxGeometry>
        </mxCell>
        <mxCell id="G5W-g5Hc8PgUAYtpd-jO-59" value="" style="edgeStyle=orthogonalEdgeStyle;html=1;endSize=12;endArrow=block;endFill=0;dashed=1;rounded=0;exitX=0;exitY=0;exitDx=160;exitDy=55;exitPerimeter=0;entryX=0;entryY=0;entryDx=80;entryDy=0;entryPerimeter=0;" parent="1" source="G5W-g5Hc8PgUAYtpd-jO-53" target="G5W-g5Hc8PgUAYtpd-jO-27" edge="1">
          <mxGeometry width="160" relative="1" as="geometry">
            <mxPoint x="130" y="-315" as="sourcePoint" />
            <mxPoint x="200" y="50" as="targetPoint" />
          </mxGeometry>
        </mxCell>
        <mxCell id="G5W-g5Hc8PgUAYtpd-jO-60" value="" style="edgeStyle=orthogonalEdgeStyle;html=1;endSize=12;endArrow=block;endFill=0;dashed=1;rounded=0;exitX=0;exitY=0;exitDx=160;exitDy=55;exitPerimeter=0;" parent="1" source="G5W-g5Hc8PgUAYtpd-jO-54" edge="1">
          <mxGeometry width="160" relative="1" as="geometry">
            <mxPoint x="140" y="-305" as="sourcePoint" />
            <mxPoint x="190" y="40" as="targetPoint" />
          </mxGeometry>
        </mxCell>
        <mxCell id="G5W-g5Hc8PgUAYtpd-jO-61" value="crear-usuario" style="shape=folder;tabWidth=80;tabHeight=20;tabPosition=left;strokeWidth=2;html=1;whiteSpace=wrap;align=center;" parent="1" vertex="1">
          <mxGeometry x="230" y="-260" width="160" height="90" as="geometry" />
        </mxCell>
        <mxCell id="G5W-g5Hc8PgUAYtpd-jO-62" value="restablecer-contrasena" style="shape=folder;tabWidth=80;tabHeight=20;tabPosition=left;strokeWidth=2;html=1;whiteSpace=wrap;align=center;" parent="1" vertex="1">
          <mxGeometry x="230" y="-130" width="160" height="90" as="geometry" />
        </mxCell>
        <mxCell id="G5W-g5Hc8PgUAYtpd-jO-67" value="" style="edgeStyle=orthogonalEdgeStyle;html=1;endSize=12;endArrow=block;endFill=0;dashed=1;rounded=0;exitX=0;exitY=0;exitDx=160;exitDy=55;exitPerimeter=0;entryX=0;entryY=0;entryDx=80;entryDy=0;entryPerimeter=0;" parent="1" source="G5W-g5Hc8PgUAYtpd-jO-61" target="G5W-g5Hc8PgUAYtpd-jO-28" edge="1">
          <mxGeometry width="160" relative="1" as="geometry">
            <mxPoint x="410" y="-425" as="sourcePoint" />
            <mxPoint x="480" y="60" as="targetPoint" />
          </mxGeometry>
        </mxCell>
        <mxCell id="G5W-g5Hc8PgUAYtpd-jO-68" value="" style="edgeStyle=orthogonalEdgeStyle;html=1;endSize=12;endArrow=block;endFill=0;dashed=1;rounded=0;exitX=0;exitY=0;exitDx=160;exitDy=55;exitPerimeter=0;entryX=0;entryY=0;entryDx=80;entryDy=0;entryPerimeter=0;" parent="1" source="G5W-g5Hc8PgUAYtpd-jO-62" target="G5W-g5Hc8PgUAYtpd-jO-28" edge="1">
          <mxGeometry width="160" relative="1" as="geometry">
            <mxPoint x="420" y="-415" as="sourcePoint" />
            <mxPoint x="490" y="70" as="targetPoint" />
          </mxGeometry>
        </mxCell>
        <mxCell id="G5W-g5Hc8PgUAYtpd-jO-69" value="aplicar-oferta" style="shape=folder;tabWidth=80;tabHeight=20;tabPosition=left;strokeWidth=2;html=1;whiteSpace=wrap;align=center;" parent="1" vertex="1">
          <mxGeometry x="493" y="-260" width="160" height="90" as="geometry" />
        </mxCell>
        <mxCell id="G5W-g5Hc8PgUAYtpd-jO-70" value="aplicar-empleo" style="shape=folder;tabWidth=80;tabHeight=20;tabPosition=left;strokeWidth=2;html=1;whiteSpace=wrap;align=center;" parent="1" vertex="1">
          <mxGeometry x="493" y="-130" width="160" height="90" as="geometry" />
        </mxCell>
        <mxCell id="G5W-g5Hc8PgUAYtpd-jO-71" value="cargar-informacion" style="shape=folder;tabWidth=80;tabHeight=20;tabPosition=left;strokeWidth=2;html=1;whiteSpace=wrap;align=center;" parent="1" vertex="1">
          <mxGeometry x="493" y="-380" width="160" height="90" as="geometry" />
        </mxCell>
        <mxCell id="G5W-g5Hc8PgUAYtpd-jO-72" value="cargar-oferta" style="shape=folder;tabWidth=80;tabHeight=20;tabPosition=left;strokeWidth=2;html=1;whiteSpace=wrap;align=center;" parent="1" vertex="1">
          <mxGeometry x="493" y="-500" width="160" height="90" as="geometry" />
        </mxCell>
        <mxCell id="G5W-g5Hc8PgUAYtpd-jO-73" value="completar-infromacion" style="shape=folder;tabWidth=80;tabHeight=20;tabPosition=left;strokeWidth=2;html=1;whiteSpace=wrap;align=center;" parent="1" vertex="1">
          <mxGeometry x="493" y="-620" width="160" height="90" as="geometry" />
        </mxCell>
        <mxCell id="G5W-g5Hc8PgUAYtpd-jO-75" value="" style="edgeStyle=orthogonalEdgeStyle;html=1;endSize=12;endArrow=block;endFill=0;dashed=1;rounded=0;exitX=0;exitY=0;exitDx=160;exitDy=55;exitPerimeter=0;entryX=0;entryY=0;entryDx=80;entryDy=0;entryPerimeter=0;" parent="1" source="G5W-g5Hc8PgUAYtpd-jO-70" target="G5W-g5Hc8PgUAYtpd-jO-33" edge="1">
          <mxGeometry width="160" relative="1" as="geometry">
            <mxPoint x="670" y="-80" as="sourcePoint" />
            <mxPoint x="740" y="35" as="targetPoint" />
          </mxGeometry>
        </mxCell>
        <mxCell id="G5W-g5Hc8PgUAYtpd-jO-76" value="" style="edgeStyle=orthogonalEdgeStyle;html=1;endSize=12;endArrow=block;endFill=0;dashed=1;rounded=0;exitX=0;exitY=0;exitDx=160;exitDy=55;exitPerimeter=0;entryX=0;entryY=0;entryDx=80;entryDy=0;entryPerimeter=0;" parent="1" source="G5W-g5Hc8PgUAYtpd-jO-69" target="G5W-g5Hc8PgUAYtpd-jO-33" edge="1">
          <mxGeometry width="160" relative="1" as="geometry">
            <mxPoint x="663" y="-65" as="sourcePoint" />
            <mxPoint x="757" y="50" as="targetPoint" />
          </mxGeometry>
        </mxCell>
        <mxCell id="G5W-g5Hc8PgUAYtpd-jO-77" value="" style="edgeStyle=orthogonalEdgeStyle;html=1;endSize=12;endArrow=block;endFill=0;dashed=1;rounded=0;exitX=0;exitY=0;exitDx=160;exitDy=55;exitPerimeter=0;entryX=0;entryY=0;entryDx=80;entryDy=0;entryPerimeter=0;" parent="1" source="G5W-g5Hc8PgUAYtpd-jO-71" target="G5W-g5Hc8PgUAYtpd-jO-33" edge="1">
          <mxGeometry width="160" relative="1" as="geometry">
            <mxPoint x="667" y="-320" as="sourcePoint" />
            <mxPoint x="761" y="-205" as="targetPoint" />
          </mxGeometry>
        </mxCell>
        <mxCell id="G5W-g5Hc8PgUAYtpd-jO-78" value="" style="edgeStyle=orthogonalEdgeStyle;html=1;endSize=12;endArrow=block;endFill=0;dashed=1;rounded=0;exitX=0;exitY=0;exitDx=160;exitDy=55;exitPerimeter=0;entryX=0;entryY=0;entryDx=80;entryDy=0;entryPerimeter=0;" parent="1" source="G5W-g5Hc8PgUAYtpd-jO-72" target="G5W-g5Hc8PgUAYtpd-jO-33" edge="1">
          <mxGeometry width="160" relative="1" as="geometry">
            <mxPoint x="683" y="-430" as="sourcePoint" />
            <mxPoint x="777" y="-315" as="targetPoint" />
          </mxGeometry>
        </mxCell>
        <mxCell id="G5W-g5Hc8PgUAYtpd-jO-79" value="" style="edgeStyle=orthogonalEdgeStyle;html=1;endSize=12;endArrow=block;endFill=0;dashed=1;rounded=0;exitX=0;exitY=0;exitDx=160;exitDy=55;exitPerimeter=0;entryX=0;entryY=0;entryDx=80;entryDy=0;entryPerimeter=0;" parent="1" source="G5W-g5Hc8PgUAYtpd-jO-73" target="G5W-g5Hc8PgUAYtpd-jO-33" edge="1">
          <mxGeometry width="160" relative="1" as="geometry">
            <mxPoint x="670" y="-560" as="sourcePoint" />
            <mxPoint x="764" y="-445" as="targetPoint" />
          </mxGeometry>
        </mxCell>
        <mxCell id="ayWMtjVmsm0DvPxxlaK2-1" value="login" style="shape=folder;tabWidth=80;tabHeight=20;tabPosition=left;strokeWidth=2;html=1;whiteSpace=wrap;align=center;" vertex="1" parent="1">
          <mxGeometry x="290" y="730" width="160" height="90" as="geometry" />
        </mxCell>
        <mxCell id="ayWMtjVmsm0DvPxxlaK2-7" style="edgeStyle=orthogonalEdgeStyle;rounded=0;orthogonalLoop=1;jettySize=auto;html=1;exitX=0;exitY=0;exitDx=160;exitDy=55;exitPerimeter=0;dashed=1;endArrow=block;endFill=0;" edge="1" parent="1" source="ayWMtjVmsm0DvPxxlaK2-5">
          <mxGeometry relative="1" as="geometry">
            <mxPoint x="-120" y="30" as="targetPoint" />
          </mxGeometry>
        </mxCell>
        <mxCell id="ayWMtjVmsm0DvPxxlaK2-5" value="crear-categoria" style="shape=folder;tabWidth=80;tabHeight=20;tabPosition=left;strokeWidth=2;html=1;whiteSpace=wrap;align=center;" vertex="1" parent="1">
          <mxGeometry x="-340" y="-600" width="160" height="90" as="geometry" />
        </mxCell>
        <mxCell id="ayWMtjVmsm0DvPxxlaK2-8" style="edgeStyle=orthogonalEdgeStyle;rounded=0;orthogonalLoop=1;jettySize=auto;html=1;exitX=0;exitY=0;exitDx=160;exitDy=55;exitPerimeter=0;dashed=1;endArrow=block;endFill=0;" edge="1" parent="1" source="ayWMtjVmsm0DvPxxlaK2-6">
          <mxGeometry relative="1" as="geometry">
            <mxPoint x="-120" y="40" as="targetPoint" />
          </mxGeometry>
        </mxCell>
        <mxCell id="ayWMtjVmsm0DvPxxlaK2-6" value="editar-categoria" style="shape=folder;tabWidth=80;tabHeight=20;tabPosition=left;strokeWidth=2;html=1;whiteSpace=wrap;align=center;" vertex="1" parent="1">
          <mxGeometry x="-340" y="-710" width="160" height="90" as="geometry" />
        </mxCell>
        <mxCell id="ayWMtjVmsm0DvPxxlaK2-9" value="empleador-reportes" style="shape=folder;tabWidth=80;tabHeight=20;tabPosition=left;strokeWidth=2;html=1;whiteSpace=wrap;align=center;" vertex="1" parent="1">
          <mxGeometry x="-40" y="-610" width="160" height="90" as="geometry" />
        </mxCell>
        <mxCell id="ayWMtjVmsm0DvPxxlaK2-10" value="generar-entrevista" style="shape=folder;tabWidth=80;tabHeight=20;tabPosition=left;strokeWidth=2;html=1;whiteSpace=wrap;align=center;" vertex="1" parent="1">
          <mxGeometry x="-40" y="-720" width="160" height="90" as="geometry" />
        </mxCell>
        <mxCell id="ayWMtjVmsm0DvPxxlaK2-11" value="gerstion" style="shape=folder;tabWidth=80;tabHeight=20;tabPosition=left;strokeWidth=2;html=1;whiteSpace=wrap;align=center;" vertex="1" parent="1">
          <mxGeometry x="-40" y="-830" width="160" height="90" as="geometry" />
        </mxCell>
        <mxCell id="ayWMtjVmsm0DvPxxlaK2-12" value="gerstion" style="shape=folder;tabWidth=80;tabHeight=20;tabPosition=left;strokeWidth=2;html=1;whiteSpace=wrap;align=center;" vertex="1" parent="1">
          <mxGeometry x="-40" y="-940" width="160" height="90" as="geometry" />
        </mxCell>
        <mxCell id="ayWMtjVmsm0DvPxxlaK2-13" value="postulantes-oferta" style="shape=folder;tabWidth=80;tabHeight=20;tabPosition=left;strokeWidth=2;html=1;whiteSpace=wrap;align=center;" vertex="1" parent="1">
          <mxGeometry x="-40" y="-1040" width="160" height="90" as="geometry" />
        </mxCell>
        <mxCell id="ayWMtjVmsm0DvPxxlaK2-14" value="realizar-entrevista" style="shape=folder;tabWidth=80;tabHeight=20;tabPosition=left;strokeWidth=2;html=1;whiteSpace=wrap;align=center;" vertex="1" parent="1">
          <mxGeometry x="-40" y="-1140" width="160" height="90" as="geometry" />
        </mxCell>
        <mxCell id="ayWMtjVmsm0DvPxxlaK2-15" value="revisar-postulacion" style="shape=folder;tabWidth=80;tabHeight=20;tabPosition=left;strokeWidth=2;html=1;whiteSpace=wrap;align=center;" vertex="1" parent="1">
          <mxGeometry x="-40" y="-1240" width="160" height="90" as="geometry" />
        </mxCell>
        <mxCell id="ayWMtjVmsm0DvPxxlaK2-16" value="revision-entrevista" style="shape=folder;tabWidth=80;tabHeight=20;tabPosition=left;strokeWidth=2;html=1;whiteSpace=wrap;align=center;" vertex="1" parent="1">
          <mxGeometry x="-40" y="-1350" width="160" height="90" as="geometry" />
        </mxCell>
        <mxCell id="ayWMtjVmsm0DvPxxlaK2-17" value="" style="edgeStyle=orthogonalEdgeStyle;html=1;endSize=12;endArrow=block;endFill=0;dashed=1;rounded=0;exitX=0;exitY=0;exitDx=160;exitDy=55;exitPerimeter=0;" edge="1" parent="1" source="ayWMtjVmsm0DvPxxlaK2-9">
          <mxGeometry width="160" relative="1" as="geometry">
            <mxPoint x="130" y="-435" as="sourcePoint" />
            <mxPoint x="190" y="40" as="targetPoint" />
          </mxGeometry>
        </mxCell>
        <mxCell id="ayWMtjVmsm0DvPxxlaK2-18" value="" style="edgeStyle=orthogonalEdgeStyle;html=1;endSize=12;endArrow=block;endFill=0;dashed=1;rounded=0;exitX=0;exitY=0;exitDx=160;exitDy=55;exitPerimeter=0;" edge="1" parent="1" source="ayWMtjVmsm0DvPxxlaK2-10">
          <mxGeometry width="160" relative="1" as="geometry">
            <mxPoint x="140" y="-425" as="sourcePoint" />
            <mxPoint x="190" y="40" as="targetPoint" />
          </mxGeometry>
        </mxCell>
        <mxCell id="ayWMtjVmsm0DvPxxlaK2-19" value="" style="edgeStyle=orthogonalEdgeStyle;html=1;endSize=12;endArrow=block;endFill=0;dashed=1;rounded=0;exitX=0;exitY=0;exitDx=160;exitDy=55;exitPerimeter=0;" edge="1" parent="1" source="ayWMtjVmsm0DvPxxlaK2-11">
          <mxGeometry width="160" relative="1" as="geometry">
            <mxPoint x="150" y="-415" as="sourcePoint" />
            <mxPoint x="190" y="40" as="targetPoint" />
          </mxGeometry>
        </mxCell>
        <mxCell id="ayWMtjVmsm0DvPxxlaK2-20" value="" style="edgeStyle=orthogonalEdgeStyle;html=1;endSize=12;endArrow=block;endFill=0;dashed=1;rounded=0;exitX=0;exitY=0;exitDx=160;exitDy=55;exitPerimeter=0;" edge="1" parent="1" source="ayWMtjVmsm0DvPxxlaK2-12">
          <mxGeometry width="160" relative="1" as="geometry">
            <mxPoint x="159.43" y="-895" as="sourcePoint" />
            <mxPoint x="190" y="40" as="targetPoint" />
          </mxGeometry>
        </mxCell>
        <mxCell id="ayWMtjVmsm0DvPxxlaK2-21" value="" style="edgeStyle=orthogonalEdgeStyle;html=1;endSize=12;endArrow=block;endFill=0;dashed=1;rounded=0;exitX=0;exitY=0;exitDx=160;exitDy=55;exitPerimeter=0;" edge="1" parent="1" source="ayWMtjVmsm0DvPxxlaK2-13">
          <mxGeometry width="160" relative="1" as="geometry">
            <mxPoint x="130" y="-875" as="sourcePoint" />
            <mxPoint x="190" y="40" as="targetPoint" />
          </mxGeometry>
        </mxCell>
        <mxCell id="ayWMtjVmsm0DvPxxlaK2-22" value="" style="edgeStyle=orthogonalEdgeStyle;html=1;endSize=12;endArrow=block;endFill=0;dashed=1;rounded=0;exitX=0;exitY=0;exitDx=160;exitDy=55;exitPerimeter=0;" edge="1" parent="1" source="ayWMtjVmsm0DvPxxlaK2-14">
          <mxGeometry width="160" relative="1" as="geometry">
            <mxPoint x="140" y="-865" as="sourcePoint" />
            <mxPoint x="190" y="40" as="targetPoint" />
          </mxGeometry>
        </mxCell>
        <mxCell id="ayWMtjVmsm0DvPxxlaK2-23" value="" style="edgeStyle=orthogonalEdgeStyle;html=1;endSize=12;endArrow=block;endFill=0;dashed=1;rounded=0;exitX=0;exitY=0;exitDx=160;exitDy=55;exitPerimeter=0;" edge="1" parent="1" source="ayWMtjVmsm0DvPxxlaK2-15">
          <mxGeometry width="160" relative="1" as="geometry">
            <mxPoint x="150" y="-855" as="sourcePoint" />
            <mxPoint x="190" y="40" as="targetPoint" />
          </mxGeometry>
        </mxCell>
        <mxCell id="ayWMtjVmsm0DvPxxlaK2-24" value="" style="edgeStyle=orthogonalEdgeStyle;html=1;endSize=12;endArrow=block;endFill=0;dashed=1;rounded=0;exitX=0;exitY=0;exitDx=160;exitDy=55;exitPerimeter=0;" edge="1" parent="1" source="ayWMtjVmsm0DvPxxlaK2-16">
          <mxGeometry width="160" relative="1" as="geometry">
            <mxPoint x="160" y="-845" as="sourcePoint" />
            <mxPoint x="180" y="30" as="targetPoint" />
            <Array as="points">
              <mxPoint x="190" y="-1295" />
              <mxPoint x="190" y="30" />
            </Array>
          </mxGeometry>
        </mxCell>
        <mxCell id="ayWMtjVmsm0DvPxxlaK2-25" value="cargar-datos" style="shape=folder;tabWidth=80;tabHeight=20;tabPosition=left;strokeWidth=2;html=1;whiteSpace=wrap;align=center;" vertex="1" parent="1">
          <mxGeometry x="230" y="-370" width="160" height="90" as="geometry" />
        </mxCell>
        <mxCell id="ayWMtjVmsm0DvPxxlaK2-26" value="" style="edgeStyle=orthogonalEdgeStyle;html=1;endSize=12;endArrow=block;endFill=0;dashed=1;rounded=0;exitX=0;exitY=0;exitDx=160;exitDy=55;exitPerimeter=0;" edge="1" parent="1" source="ayWMtjVmsm0DvPxxlaK2-25">
          <mxGeometry width="160" relative="1" as="geometry">
            <mxPoint x="400" y="-195" as="sourcePoint" />
            <mxPoint x="460" y="40" as="targetPoint" />
          </mxGeometry>
        </mxCell>
        <mxCell id="ayWMtjVmsm0DvPxxlaK2-27" value="entrevistas" style="shape=folder;tabWidth=80;tabHeight=20;tabPosition=left;strokeWidth=2;html=1;whiteSpace=wrap;align=center;" vertex="1" parent="1">
          <mxGeometry x="493" y="-730" width="160" height="90" as="geometry" />
        </mxCell>
        <mxCell id="ayWMtjVmsm0DvPxxlaK2-28" value="perfil-empresa" style="shape=folder;tabWidth=80;tabHeight=20;tabPosition=left;strokeWidth=2;html=1;whiteSpace=wrap;align=center;" vertex="1" parent="1">
          <mxGeometry x="493" y="-840" width="160" height="90" as="geometry" />
        </mxCell>
        <mxCell id="ayWMtjVmsm0DvPxxlaK2-29" value="postulaciones" style="shape=folder;tabWidth=80;tabHeight=20;tabPosition=left;strokeWidth=2;html=1;whiteSpace=wrap;align=center;" vertex="1" parent="1">
          <mxGeometry x="493" y="-950" width="160" height="90" as="geometry" />
        </mxCell>
        <mxCell id="ayWMtjVmsm0DvPxxlaK2-30" value="reportes" style="shape=folder;tabWidth=80;tabHeight=20;tabPosition=left;strokeWidth=2;html=1;whiteSpace=wrap;align=center;" vertex="1" parent="1">
          <mxGeometry x="493" y="-1060" width="160" height="90" as="geometry" />
        </mxCell>
        <mxCell id="ayWMtjVmsm0DvPxxlaK2-31" value="solicitante-cargar-oferta" style="shape=folder;tabWidth=80;tabHeight=20;tabPosition=left;strokeWidth=2;html=1;whiteSpace=wrap;align=center;" vertex="1" parent="1">
          <mxGeometry x="493" y="-1169" width="160" height="90" as="geometry" />
        </mxCell>
        <mxCell id="ayWMtjVmsm0DvPxxlaK2-32" value="" style="edgeStyle=orthogonalEdgeStyle;html=1;endSize=12;endArrow=block;endFill=0;dashed=1;rounded=0;exitX=0;exitY=0;exitDx=160;exitDy=55;exitPerimeter=0;entryX=0;entryY=0;entryDx=80;entryDy=0;entryPerimeter=0;" edge="1" parent="1" source="ayWMtjVmsm0DvPxxlaK2-27" target="G5W-g5Hc8PgUAYtpd-jO-33">
          <mxGeometry width="160" relative="1" as="geometry">
            <mxPoint x="663" y="-555" as="sourcePoint" />
            <mxPoint x="757" y="50" as="targetPoint" />
          </mxGeometry>
        </mxCell>
        <mxCell id="ayWMtjVmsm0DvPxxlaK2-33" value="" style="edgeStyle=orthogonalEdgeStyle;html=1;endSize=12;endArrow=block;endFill=0;dashed=1;rounded=0;exitX=0;exitY=0;exitDx=160;exitDy=37.5;exitPerimeter=0;" edge="1" parent="1" source="ayWMtjVmsm0DvPxxlaK2-28">
          <mxGeometry width="160" relative="1" as="geometry">
            <mxPoint x="673" y="-545" as="sourcePoint" />
            <mxPoint x="747" y="40" as="targetPoint" />
          </mxGeometry>
        </mxCell>
        <mxCell id="ayWMtjVmsm0DvPxxlaK2-34" value="" style="edgeStyle=orthogonalEdgeStyle;html=1;endSize=12;endArrow=block;endFill=0;dashed=1;rounded=0;exitX=0;exitY=0;exitDx=160;exitDy=55;exitPerimeter=0;entryX=0;entryY=0;entryDx=80;entryDy=0;entryPerimeter=0;" edge="1" parent="1" source="ayWMtjVmsm0DvPxxlaK2-29" target="G5W-g5Hc8PgUAYtpd-jO-33">
          <mxGeometry width="160" relative="1" as="geometry">
            <mxPoint x="663" y="-792" as="sourcePoint" />
            <mxPoint x="777" y="70" as="targetPoint" />
          </mxGeometry>
        </mxCell>
        <mxCell id="ayWMtjVmsm0DvPxxlaK2-35" value="" style="edgeStyle=orthogonalEdgeStyle;html=1;endSize=12;endArrow=block;endFill=0;dashed=1;rounded=0;exitX=0;exitY=0;exitDx=160;exitDy=55;exitPerimeter=0;entryX=0;entryY=0;entryDx=80;entryDy=0;entryPerimeter=0;" edge="1" parent="1" source="ayWMtjVmsm0DvPxxlaK2-30" target="G5W-g5Hc8PgUAYtpd-jO-33">
          <mxGeometry width="160" relative="1" as="geometry">
            <mxPoint x="663" y="-885" as="sourcePoint" />
            <mxPoint x="787" y="80" as="targetPoint" />
          </mxGeometry>
        </mxCell>
        <mxCell id="ayWMtjVmsm0DvPxxlaK2-36" value="" style="edgeStyle=orthogonalEdgeStyle;html=1;endSize=12;endArrow=block;endFill=0;dashed=1;rounded=0;exitX=0;exitY=0;exitDx=160;exitDy=55;exitPerimeter=0;entryX=0;entryY=0;entryDx=80;entryDy=0;entryPerimeter=0;" edge="1" parent="1" source="ayWMtjVmsm0DvPxxlaK2-31" target="G5W-g5Hc8PgUAYtpd-jO-33">
          <mxGeometry width="160" relative="1" as="geometry">
            <mxPoint x="673" y="-875" as="sourcePoint" />
            <mxPoint x="797" y="90" as="targetPoint" />
          </mxGeometry>
        </mxCell>
      </root>
    </mxGraphModel>
  </diagram>
</mxfile>
